<svg id="图层_1" data-name="图层 1" xmlns="http://www.w3.org/2000/svg" xmlns:xlink="http://www.w3.org/1999/xlink" viewBox="0 0 80 80"><defs><style>.cls-1{fill:none;}.cls-2{fill:#fff;}.cls-3{clip-path:url(#clip-path);}.cls-4{fill:#415cee;}.cls-5{fill:#425cef;}.cls-6{fill:#435cf0;}.cls-7{fill:#455bf1;}.cls-8{fill:#475bf1;}.cls-9{fill:#495bf2;}.cls-10{fill:#4a5bf3;}.cls-11{fill:#4b5bf4;}.cls-12{clip-path:url(#clip-path-2);}.cls-13{fill:url(#未命名的渐变_120);}.cls-14{fill:url(#未命名的渐变_83);}.cls-15{fill:url(#未命名的渐变_126);}.cls-16{fill:#232692;}</style><clipPath id="clip-path"><rect class="cls-1" x="63.94" y="38.59" width="14.93" height="41.17"/></clipPath><clipPath id="clip-path-2"><rect class="cls-1" x="1.1" y="38.59" width="14.93" height="41.17"/></clipPath><linearGradient id="未命名的渐变_120" x1="73.71" y1="19.72" x2="6.29" y2="58.65" gradientUnits="userSpaceOnUse"><stop offset="0" stop-color="#2f44ad"/><stop offset="0.32" stop-color="#3045ae"/><stop offset="0.52" stop-color="#414fc3"/><stop offset="0.93" stop-color="#6e27e1"/></linearGradient><linearGradient id="未命名的渐变_83" x1="69.57" y1="29.82" x2="10.43" y2="88.96" gradientUnits="userSpaceOnUse"><stop offset="0.21" stop-color="#1945c2"/><stop offset="1" stop-color="#61d6ec"/></linearGradient><linearGradient id="未命名的渐变_126" x1="85.32" y1="45.57" x2="46.32" y2="84.57" gradientUnits="userSpaceOnUse"><stop offset="0.34" stop-color="#2f44ad"/><stop offset="0.99" stop-color="#0099e1"/></linearGradient></defs><title>AM111</title><circle class="cls-2" cx="40.5" cy="41.5" r="30"/><g class="cls-3"><rect class="cls-4" x="63.94" y="38.59" width="11.4" height="41.17"/><rect class="cls-4" x="75.34" y="38.59" width="0.44" height="41.17"/><rect class="cls-5" x="75.78" y="38.59" width="0.44" height="41.17"/><rect class="cls-6" x="76.22" y="38.59" width="0.44" height="41.17"/><rect class="cls-7" x="76.66" y="38.59" width="0.44" height="41.17"/><rect class="cls-8" x="77.1" y="38.59" width="0.44" height="41.17"/><rect class="cls-9" x="77.54" y="38.59" width="0.44" height="41.17"/><rect class="cls-10" x="77.98" y="38.59" width="0.44" height="41.17"/><rect class="cls-11" x="78.42" y="38.59" width="0.44" height="41.17"/></g><g class="cls-12"><rect class="cls-4" x="1.1" y="38.59" width="11.4" height="41.17"/><rect class="cls-4" x="12.5" y="38.59" width="0.44" height="41.17"/><rect class="cls-5" x="12.94" y="38.59" width="0.44" height="41.17"/><rect class="cls-6" x="13.38" y="38.59" width="0.44" height="41.17"/><rect class="cls-7" x="13.83" y="38.59" width="0.44" height="41.17"/><rect class="cls-8" x="14.27" y="38.59" width="0.44" height="41.17"/><rect class="cls-9" x="14.71" y="38.59" width="0.44" height="41.17"/><rect class="cls-10" x="15.15" y="38.59" width="0.44" height="41.17"/><rect class="cls-11" x="15.59" y="38.59" width="0.44" height="41.17"/></g><path class="cls-13" d="M40,78.12A38.94,38.94,0,1,1,78.94,39.18,39,39,0,0,1,40,78.12Zm0-62.87A23.93,23.93,0,1,0,63.93,39.18,24,24,0,0,0,40,15.25Z"/><path class="cls-14" d="M79,79.53H64V70a38.92,38.92,0,0,1-48,0v9.56H1V39.25H16a24,24,0,0,0,48,0H79Z"/><path class="cls-15" d="M64,39.25a24,24,0,0,1-24,24v15A38.84,38.84,0,0,0,64,70v9.56H79V39.25Z"/><circle class="cls-16" cx="51.27" cy="39.25" r="9.03"/></svg>