<svg width="32" height="32" viewBox="0 0 32 32" fill="none" xmlns="http://www.w3.org/2000/svg">
<path fill-rule="evenodd" clip-rule="evenodd" d="M0 16C0 7.16344 7.16344 0 16 0C24.8366 0 32 7.16344 32 16C32 24.8366 24.8366 32 16 32C7.16344 32 0 24.8366 0 16Z" fill="#3158FA"/>
<path d="M16 15.0982C15.1849 13.5131 12.9654 10.5591 10.9017 9.1022C8.92485 7.70658 8.1707 7.9484 7.6763 8.1718C7.10405 8.43038 7 9.30892 7 9.82582C7 10.3427 7.28337 14.0636 7.46821 14.6847C8.07893 16.7369 10.253 17.4303 12.2552 17.2078C12.3575 17.1926 12.4614 17.1786 12.5665 17.1656C12.4634 17.1821 12.3595 17.1962 12.2552 17.2078C9.32102 17.6423 6.71519 18.7116 10.1329 22.5165C13.8924 26.409 15.2853 21.6818 16 19.2851C16.7147 21.6818 17.538 26.2385 21.7998 22.5165C25 19.2851 22.679 17.6425 19.7448 17.2079C19.6405 17.1963 19.5367 17.1822 19.4336 17.1657C19.5387 17.1787 19.6424 17.1927 19.7448 17.2079C21.747 17.4305 23.921 16.737 24.5318 14.6848C24.7166 14.0637 25 10.3428 25 9.82595C25 9.30905 24.8959 8.43051 24.3237 8.17193C23.8293 7.94853 23.0752 7.70671 21.0983 9.10233C19.0346 10.5592 16.8151 13.5131 16 15.0982Z" fill="white"/>
</svg>
