<?xml version="1.0" standalone="no"?><!DOCTYPE svg PUBLIC "-//W3C//DTD SVG 1.1//EN" "http://www.w3.org/Graphics/SVG/1.1/DTD/svg11.dtd"><svg class="icon" width="200px" height="200.00px" viewBox="0 0 1024 1024" version="1.1" xmlns="http://www.w3.org/2000/svg"><path fill="#3158fa" d="M512 0C229.1712 0 0 229.2736 0 512c0 282.7264 229.1712 512 512 512 282.7264 0 512-229.2736 512-512 0-282.7264-229.2736-512-512-512z m-125.166933 725.367467H282.9312v-334.984534h103.901867v334.984534z m-52.6336-374.784a51.9168 51.9168 0 1 1 8.567466-103.560534 51.882667 51.882667 0 0 1 47.7184 51.473067 52.0192 52.0192 0 0 1-52.394666 51.370667c-1.365333 0-2.628267-0.1024-3.9936-0.2048l0.1024 0.887466z m430.8992 374.784H661.162667v-185.002667c0-42.666667-14.882133-71.168-52.6336-71.168a56.900267 56.900267 0 0 0-53.213867 38.673067c-1.706667 8.704-1.706667 17.749333 0 26.453333v190.805333h-106.632533v-334.7456h90.282666l5.051734 46.216534a120.149333 120.149333 0 0 1 103.287466-53.998934c70.9632 0 119.330133 45.533867 119.330134 142.199467l-1.570134 200.567467z" /></svg>