<?xml version="1.0" standalone="no"?><!DOCTYPE svg PUBLIC "-//W3C//DTD SVG 1.1//EN" "http://www.w3.org/Graphics/SVG/1.1/DTD/svg11.dtd"><svg t="1721790651573" class="icon" viewBox="0 0 1024 1024" version="1.1" xmlns="http://www.w3.org/2000/svg" p-id="1440" xmlns:xlink="http://www.w3.org/1999/xlink" width="200" height="200"><path d="M512 453.67642751l-416.79508996-416.86444021a52.77555132 52.77555132 0 0 0-74.55153439-1.10960423 52.77555132 52.77555132 0 0 0 1.04025398 74.55153439L473.78800424 562.55634286a54.09320635 54.09320635 0 0 0 18.86327195 12.06694603c2.28855873 0.9709037 4.85451852 0.97090371 7.28177777 1.59505608 3.95296508 0.83220317 7.90593016 2.1498582 12.06694604 2.14985819s8.04463068-1.24830476 12.06694604-2.14985819c2.357909-0.62415238 4.99321905-0.62415238 7.28177777-1.59505608a53.3997037 53.3997037 0 0 0 18.86327195-12.06694603l452.16372487-452.23307513a52.70620106 52.70620106 0 0 0 1.10960424-74.5515344 52.70620106 52.70620106 0 0 0-74.48218413 1.10960424L512 453.67642751z" fill="#3158fa" p-id="1441"></path><path d="M512 878.51614814l-416.79508995-416.86444021a52.77555132 52.77555132 0 0 0-74.5515344-1.10960423 52.70620106 52.70620106 0 0 0 0.97090372 74.62088466l452.0943746 452.16372486a54.09320635 54.09320635 0 0 0 18.86327195 12.06694604c2.28855873 0.9709037 4.85451852 0.97090371 7.35112805 1.52570583 3.95296508 0.90155344 7.90593016 2.21920846 12.06694603 2.21920845s8.04463068-1.31765503 11.99759576-2.21920846c2.42725926-0.62415239 4.99321905-0.62415238 7.35112805-1.52570582a53.3997037 53.3997037 0 0 0 18.86327195-12.06694604l452.09437462-452.16372486a52.70620106 52.70620106 0 0 0 1.17895448-74.62088466 52.77555132 52.77555132 0 0 0-74.55153438 1.04025397L512 878.51614814z" fill="#3158fa" p-id="1442"></path></svg>