<?xml version="1.0" standalone="no"?><!DOCTYPE svg PUBLIC "-//W3C//DTD SVG 1.1//EN" "http://www.w3.org/Graphics/SVG/1.1/DTD/svg11.dtd"><svg t="1711938848604" class="icon" viewBox="0 0 1024 1024" version="1.1" xmlns="http://www.w3.org/2000/svg" p-id="1453" xmlns:xlink="http://www.w3.org/1999/xlink" width="200" height="200"><path fill="#3158fa" d="M578.80576 511.9328c-11.48784 0-22.97904 10.668-22.97904 23.8 0 10.67024 11.4856 21.33936 22.97904 21.33936 17.24016 0 29.5512-10.67024 29.55119999-21.33936 0-13.13088-12.3088-23.8-29.55119999-23.8v0zM503.292 401.12c18.05776 0 29.5512-11.48784 29.55120001-28.72912 0-18.05776-11.49232-28.72688-29.55120001-28.72688-17.2368 0-33.65376 10.67024-33.65376 28.72688-0.00112 17.24352 16.41808001 28.72912 33.65376 28.72912v0zM512.32144 8.55104c-278.23824 0-503.79055999 225.55231999-503.79056 503.79056 0 278.23600001 225.55231999 503.78944 503.79056 503.78944 278.23600001 0 503.78944-225.55231999 503.78944-503.78944 0.00112-278.23824-225.5512-503.79055999-503.78944-503.79056v0zM417.108 639.9768c-30.37327999 0-52.53472001-4.92127999-81.26272-13.132l-82.90128 41.8656 23.80784-70.59472001c-58.2792-41.0368-92.75616-92.74831999-92.75616-155.95215998 0-111.6304 105.06496-196.99567999 233.11343999-196.99568001 113.27119999 0 214.23247999 67.30864 233.93104001 162.52655999-8.20735999-1.64527999-15.59712-2.46288-22.16256-2.46287999-111.6304 0-197.81328 83.72-197.81328 184.68128 0 17.23456001 2.46288 32.83056 6.56656 49.24863999-6.56656 0.81536-13.95632 0.81536-20.52288 0.81536001v0zM759.38784 720.4152l16.41360001 59.1024-62.38064002-35.29344c-23.80224 4.92127999-46.78576 12.3088-70.58799999 12.30879999-109.99072001 0-196.99567999-75.51264-196.99568001-169.08415999 0-93.57264 87.0072-169.0864 196.99568001-169.0864 104.24064 0 197.81328 75.51376 197.81328001 169.0864 0 52.528-35.29344 99.31376-81.25824001 132.96751999v0zM340.77104 343.664c-17.2368 0-35.29344 10.67024-35.29344 28.72688 0 17.2424 18.05664 28.73472 35.29344 28.73472 16.4192 0 29.5512-11.49232 29.5512-28.73472 0-18.05664-13.13200001-28.72688-29.5512-28.72688v0zM707.67744 511.9328c-12.3144 0-22.98463999 10.668-22.98464001 23.8 0 10.67024 10.67024 21.33936 22.98464001 21.33936 16.4136 0 28.72688-10.67024 28.72688-21.33936 0-13.13088-12.31328-23.8-28.72688-23.8v0zM707.67744 511.9328z" p-id="1454"></path></svg>